<svg width="16" height="14" viewBox="0 0 16 14" fill="none" xmlns="http://www.w3.org/2000/svg">
<g clip-path="url(#clip0_5297_1249)">
<path d="M8.03344 11.9712C5.84418 11.9712 3.6555 11.9712 1.46624 11.9712C1.2449 11.9712 1.14257 12.0725 1.14257 12.291C1.14257 12.3476 1.14544 12.4042 1.14199 12.4602C1.13739 12.5281 1.13049 12.5961 1.11785 12.6623C1.0707 12.904 0.839014 13.0976 0.561907 13.0947C0.283651 13.0919 0.0531115 12.8853 0.011143 12.6198C0.00136951 12.5576 -0.00380468 12.4936 -0.00380468 12.4308C-0.00437959 11.1447 -0.0130032 9.85813 -0.000930129 8.5721C0.0059688 7.82266 0.283076 7.17059 0.814293 6.62776C1.13682 6.29832 1.52028 6.06398 1.95894 5.91455C2.30389 5.79738 2.66033 5.76172 3.02367 5.76172C6.39092 5.76285 9.75817 5.76002 13.1254 5.76398C14.112 5.76511 14.9111 6.15681 15.5033 6.93568C15.7942 7.31889 15.9678 7.75417 16.027 8.22964C16.0471 8.38983 16.0557 8.55285 16.0563 8.71474C16.0586 9.96342 16.058 11.2121 16.0575 12.4608C16.0575 12.6561 16.0086 12.8338 15.8453 12.9629C15.6729 13.0993 15.4803 13.1349 15.275 13.0517C15.0784 12.9713 14.9542 12.8236 14.926 12.6125C14.9117 12.5061 14.9134 12.3968 14.9105 12.2893C14.9059 12.1155 14.8329 12.0108 14.6869 11.9785C14.6547 11.9712 14.6208 11.9717 14.5874 11.9717C12.4033 11.9717 10.2193 11.9717 8.03459 11.9717L8.03344 11.9712Z" fill="#323232"/>
<path d="M7.95368 0.682617C9.37371 0.682617 10.7932 0.682617 12.2126 0.682617C12.6881 0.682617 13.1325 0.787334 13.5159 1.07658C14.0092 1.44847 14.2972 1.93809 14.3214 2.55281C14.3421 3.07413 14.3329 3.59658 14.3352 4.11847C14.3369 4.45469 14.3352 4.79092 14.3352 5.12714C14.3352 5.15714 14.3335 5.18884 14.3254 5.21771C14.3007 5.30884 14.2507 5.34507 14.1564 5.32752C14.0535 5.30828 13.954 5.26696 13.8511 5.25564C13.6091 5.2296 13.3665 5.21148 13.1233 5.19903C12.9611 5.19054 12.9111 5.16167 12.8881 5.00488C12.8145 4.5079 12.3471 4.06073 11.7492 4.06752C11.0823 4.07488 10.4154 4.06922 9.74912 4.06922C9.25297 4.06922 8.82927 4.36016 8.66082 4.81865C8.63667 4.88432 8.62747 4.95564 8.61482 5.02469C8.59125 5.14865 8.54469 5.19507 8.41935 5.19677C8.15662 5.1996 7.89331 5.1996 7.63058 5.19677C7.50985 5.19564 7.46213 5.14865 7.44028 5.01111C7.40981 4.81809 7.33392 4.64601 7.20974 4.49488C6.98495 4.22092 6.69405 4.07205 6.3353 4.07035C5.64714 4.06696 4.95897 4.06865 4.27023 4.06979C3.69187 4.07035 3.23941 4.51526 3.16582 5.00375C3.14225 5.16167 3.09453 5.18941 2.93241 5.1996C2.66393 5.21714 2.39544 5.24205 2.12753 5.27035C2.04532 5.27884 1.96656 5.31394 1.88492 5.32752C1.79696 5.34167 1.75614 5.31224 1.73142 5.22733C1.72165 5.19394 1.71705 5.15828 1.71705 5.12318C1.71647 4.31658 1.70555 3.50998 1.71935 2.70337C1.73372 1.85941 2.12983 1.23903 2.90481 0.863749C3.21182 0.716013 3.54469 0.682617 3.88159 0.682617C5.23895 0.682617 6.59631 0.682617 7.95368 0.682617Z" fill="#323232"/>
</g>
<defs>
<clipPath id="clip0_5297_1249">
<rect width="16.0641" height="12.4132" fill="white" transform="translate(-0.00732422 0.682617)"/>
</clipPath>
</defs>
</svg>
