<svg width="60" height="66" viewBox="0 0 60 66" fill="none" xmlns="http://www.w3.org/2000/svg">
<path d="M21.459 29.0717V13.507L14.9613 9.58858V25.4524L6.49381 20.3457V4.48188L0 0.567383V23.9728L6.49381 27.8912L14.9536 32.994H14.9613V32.9979H14.9536L6.49381 38.0929L0 42.0152V65.4245L0.00773994 65.4361L6.49381 61.5216L14.9613 56.4149L21.459 52.4966L26.7531 49.3044L33.2508 45.386V24.2524L38.4481 21.1185L44.942 17.204L53.5062 12.0351V19.9457L44.942 25.1145L38.4481 29.029V52.4344L44.942 56.3528L53.5062 61.5177L60 65.4361V42.9278L53.5062 39.0133L44.942 33.8445L43.959 33.2542L44.942 32.6639L53.5062 27.4951L60 23.5806V0.567383L53.5062 4.48188L44.942 9.65072L38.4481 13.5691L33.2508 16.703L26.7531 20.6253V41.755L21.459 44.9472L14.9613 48.8694L6.49381 53.9761V45.6462L14.9613 40.5395L21.2074 36.7687L21.4551 36.6211V29.0756L21.459 29.0717ZM53.5062 46.551V53.9684L44.942 48.7995V41.3822L53.5062 46.551Z" fill="#FBFAFA"/>
</svg>
