<svg width="44" height="44" viewBox="0 0 44 44" fill="none" xmlns="http://www.w3.org/2000/svg">
<rect x="0.5" y="0.5" width="43" height="43" rx="21.5" stroke="#FBFAFA"/>
<path fill-rule="evenodd" clip-rule="evenodd" d="M30.4 21.9998C30.4 22.4969 29.9971 22.8998 29.5 22.8998L16.7345 22.8998L21.7238 27.6511C22.0821 27.9956 22.0933 28.5653 21.7488 28.9236C21.4043 29.2819 20.8345 29.2931 20.4762 28.9486L13.8762 22.6486C13.6998 22.4789 13.6 22.2446 13.6 21.9998C13.6 21.755 13.6998 21.5207 13.8762 21.3511L20.4762 15.0511C20.8345 14.7065 21.4043 14.7177 21.7488 15.076C22.0933 15.4343 22.0821 16.004 21.7238 16.3486L16.7345 21.0998L29.5 21.0998C29.9971 21.0998 30.4 21.5027 30.4 21.9998Z" fill="#808080"/>
</svg>
