<svg width="44" height="44" viewBox="0 0 44 44" fill="none" xmlns="http://www.w3.org/2000/svg">
<rect x="0.5" y="0.5" width="43" height="43" rx="21.5" fill="#1A1A1A"/>
<rect x="0.5" y="0.5" width="43" height="43" rx="21.5" stroke="#FBFAFA"/>
<path fill-rule="evenodd" clip-rule="evenodd" d="M13.6 22.0002C13.6 21.5031 14.0029 21.1002 14.5 21.1002L27.2655 21.1002L22.2762 16.3489C21.9179 16.0044 21.9067 15.4347 22.2512 15.0764C22.5957 14.7181 23.1655 14.7069 23.5238 15.0514L30.1238 21.3514C30.3002 21.5211 30.4 21.7554 30.4 22.0002C30.4 22.245 30.3002 22.4793 30.1238 22.6489L23.5238 28.9489C23.1655 29.2935 22.5957 29.2823 22.2512 28.924C21.9067 28.5657 21.9179 27.996 22.2762 27.6514L27.2655 22.9002L14.5 22.9002C14.0029 22.9002 13.6 22.4973 13.6 22.0002Z" fill="white"/>
</svg>
